<?xml version="1.0" standalone="no"?>
<!DOCTYPE svg PUBLIC "-//W3C//DTD SVG 20010904//EN"
 "http://www.w3.org/TR/2001/REC-SVG-20010904/DTD/svg10.dtd">
<svg  version="1.0" xmlns="http://www.w3.org/2000/svg"
 width="506.000000pt" height="900.000000pt" viewBox="0 0 506.000000 900.000000"
 preserveAspectRatio="xMidYMid meet">

<g transform="translate(0.000000,900.000000) scale(0.100000,-0.100000)"
fill="#000000" stroke="none">
<path d="M2851 3379 c-29 -5 -74 -19 -100 -31 -40 -18 -65 -21 -191 -23 -134
-1 -152 -4 -241 -33 -154 -51 -265 -138 -366 -287 -90 -134 -163 -323 -163
-424 0 -62 27 -114 65 -125 l30 -9 0 -101 c1 -114 14 -172 50 -214 19 -23 25
-41 25 -77 0 -60 28 -107 76 -130 20 -9 34 -18 32 -20 -2 -1 -86 1 -188 5
-102 5 -188 6 -192 3 -14 -8 -9 -31 87 -355 52 -177 95 -328 95 -335 0 -7 -17
-16 -37 -22 -127 -31 -117 -31 -217 4 -247 89 -426 85 -682 -14 -93 -36 -197
-100 -214 -130 -14 -26 1 -57 32 -67 19 -6 14 -10 -37 -36 -76 -38 -95 -55
-95 -85 0 -19 10 -28 44 -44 24 -10 59 -22 78 -25 56 -10 63 -13 50 -26 -23
-23 -14 -57 19 -73 64 -34 183 -56 324 -62 122 -5 151 -3 225 16 136 34 222
82 319 177 l84 83 88 12 c48 6 97 9 109 6 20 -5 74 19 167 75 l31 18 56 -80
c31 -44 67 -87 81 -96 35 -23 67 -15 85 23 8 18 21 33 28 33 31 0 175 114 204
161 l30 47 96 17 c54 10 141 25 195 35 96 17 99 17 135 -2 58 -31 89 -37 126
-27 31 9 78 51 88 79 3 11 147 40 448 90 74 13 140 28 146 34 15 14 26 137 14
156 -8 12 -55 6 -337 -43 -180 -32 -338 -58 -350 -57 -15 0 -23 7 -25 22 -2
17 -30 37 -108 81 -58 32 -109 62 -113 66 -4 4 52 11 125 14 139 7 225 23 318
59 64 25 145 76 180 113 14 15 34 25 51 25 56 0 123 83 118 145 -3 26 4 41 33
73 27 30 40 56 52 110 9 39 16 80 16 91 0 17 6 21 34 21 22 0 45 9 62 23 23
20 28 34 32 84 13 186 -106 528 -246 704 -129 163 -313 274 -545 329 -97 23
-261 33 -336 19z m-344 -648 c66 -53 162 -190 230 -328 55 -111 56 -113 90
-113 57 0 91 47 123 167 l11 43 45 -58 c25 -31 60 -70 77 -85 l32 -28 -27 -20
c-29 -21 -36 -47 -17 -66 7 -7 3 -18 -14 -35 -29 -29 -67 -99 -67 -124 0 -15
-11 -16 -107 -10 -149 10 -153 11 -153 51 0 18 -14 59 -30 91 -27 50 -29 59
-15 66 57 33 -51 101 -217 138 -26 5 -60 7 -77 4 -33 -7 -50 -37 -32 -58 9
-10 0 -20 -38 -44 -54 -33 -103 -94 -121 -148 -11 -31 -15 -34 -51 -34 -38 0
-39 1 -39 36 0 31 3 36 19 31 25 -6 57 16 75 51 8 15 37 86 64 157 86 225 152
355 178 355 6 0 34 -18 61 -39z m923 -396 c84 -162 122 -214 161 -222 29 -5
30 -8 27 -52 -3 -49 -16 -59 -62 -47 -19 5 -25 15 -30 54 -7 58 -50 129 -100
167 -31 23 -34 29 -23 46 15 24 0 51 -34 59 -13 3 -24 11 -23 18 1 7 2 32 3
57 0 25 4 45 9 45 4 0 36 -56 72 -125z m-882 -41 c82 -34 135 -114 135 -205 1
-241 -319 -318 -424 -102 -72 148 33 323 194 323 32 0 74 -7 95 -16z m797 -69
c84 -34 135 -114 135 -211 0 -198 -243 -298 -384 -158 -68 68 -84 169 -42 260
51 109 176 156 291 109z m-1161 -147 c2 -7 9 -35 15 -62 17 -70 65 -133 131
-170 48 -27 65 -31 130 -31 65 0 83 4 129 30 60 33 115 98 133 157 11 37 14
39 42 34 17 -3 72 -8 122 -12 l92 -6 6 -44 c11 -83 71 -164 158 -211 49 -26
179 -24 233 4 55 29 118 99 140 156 18 48 23 51 63 41 30 -8 28 -29 -9 -102
-36 -73 -71 -104 -164 -148 -114 -54 -211 -69 -425 -68 -267 1 -467 38 -628
116 -146 71 -219 158 -237 281 l-7 47 36 0 c21 0 38 -5 40 -12z m-138 -63 c23
-35 13 -54 -14 -25 -23 25 -29 50 -12 50 5 0 17 -11 26 -25z m1654 -104 c0
-21 -46 -81 -61 -81 -14 0 18 71 39 86 22 17 22 17 22 -5z m120 -501 c-8 -15
-18 -20 -32 -17 -11 3 -38 -1 -60 -9 -49 -17 -81 -19 -58 -4 11 7 4 9 -24 6
-45 -6 -60 -16 -25 -17 13 0 -10 -7 -51 -15 -41 -8 -110 -21 -153 -30 -43 -9
-84 -13 -92 -10 -8 3 -15 1 -15 -4 0 -6 -7 -10 -15 -10 -8 0 -15 2 -15 4 0 2
-3 11 -6 20 -4 11 0 16 14 16 12 0 24 -4 27 -10 3 -5 14 -10 23 -10 13 0 13 2
-3 14 -18 13 -16 15 27 21 28 4 54 3 67 -4 12 -7 21 -8 21 -2 0 5 -6 12 -12
15 -7 3 -1 4 14 2 15 -1 29 0 30 4 6 12 210 41 222 31 7 -6 17 -6 26 -1 12 8
11 10 -5 11 -11 1 7 7 40 14 33 6 61 10 63 9 2 -1 -2 -12 -8 -24z m-1046 -64
l30 -23 -65 -12 c-89 -15 -87 -16 -49 24 19 19 39 35 44 35 6 0 24 -11 40 -24z
m338 -34 c-34 -42 -62 -69 -62 -58 0 11 83 107 88 102 2 -3 -9 -23 -26 -44z
m108 -53 c0 -36 -24 -59 -60 -59 -44 0 -45 16 -3 64 42 48 63 47 63 -5z m-355
-10 c-26 -6 -25 -6 7 -4 21 2 41 -1 44 -6 3 -5 -5 -9 -18 -9 -13 0 -69 -9
-126 -20 -56 -11 -107 -20 -112 -20 -13 0 -13 27 0 35 18 11 214 43 225 36 6
-3 -3 -9 -20 -12z m-979 -118 c-4 -5 -1 -11 5 -13 5 -2 11 -18 11 -35 1 -19 5
-30 11 -26 6 3 7 1 3 -5 -3 -6 -2 -13 4 -17 17 -11 11 -22 -15 -27 -22 -5 -25
-1 -30 41 -4 25 -8 56 -10 69 -2 14 1 22 11 22 8 0 13 -4 10 -9z m-102 -42 c9
-46 7 -69 -4 -44 -8 19 -9 19 -9 -2 -1 -14 5 -23 14 -23 8 0 15 -7 15 -15 0
-26 -28 -16 -34 13 -18 91 -18 102 -3 102 8 0 17 -13 21 -31z"/>
<path d="M2399 2191 c-23 -23 -29 -38 -29 -71 0 -107 140 -139 186 -42 13 29
14 41 5 73 -14 47 -44 69 -94 69 -29 0 -46 -7 -68 -29z"/>
<path d="M3214 2151 c-56 -24 -79 -94 -49 -151 52 -100 202 -39 181 73 -11 60
-79 100 -132 78z"/>
<path d="M2740 1805 c0 -8 19 -27 42 -41 l42 -27 53 17 c31 10 53 23 53 31 0
23 -16 26 -57 11 -35 -12 -42 -12 -73 5 -43 22 -60 24 -60 4z"/>
<path d="M3790 1409 c0 -5 5 -7 10 -4 6 3 10 8 10 11 0 2 -4 4 -10 4 -5 0 -10
-5 -10 -11z"/>
<path d="M3370 1340 c-12 -8 -11 -10 8 -10 12 0 22 5 22 10 0 13 -11 13 -30 0z"/>
<path d="M1880 1080 c0 -5 5 -10 11 -10 5 0 7 5 4 10 -3 6 -8 10 -11 10 -2 0
-4 -4 -4 -10z"/>
<path d="M1890 1030 c0 -5 7 -10 16 -10 8 0 12 5 9 10 -3 6 -10 10 -16 10 -5
0 -9 -4 -9 -10z"/>
</g>
</svg>
